<svg width="38" height="38" viewBox="0 0 38 38" fill="none" xmlns="http://www.w3.org/2000/svg">
<circle cx="19" cy="19" r="19" fill="#1A441D"/>
<path d="M13.977 20.2061L16.6356 21.7409L13.132 15.533L6 15.604L8.66032 17.1379L6.52526 20.8331C6.30887 21.2072 6.08114 21.8133 6.397 22.3609L10.0215 28.6338C10.6706 29.7578 11.8014 29.7513 12.6203 29.7513H18.4129V23.0284H12.3463L13.977 20.2061ZM31.5505 19.3577L28.6537 14.344L22.8283 17.7047L25.8612 22.9552L22.601 22.9548V19.8878L18.9744 26.0238L22.6028 32.1607L22.6019 29.0916H26.8699C27.3026 29.0916 27.9422 28.9857 28.258 28.4389L31.8821 22.166C32.5308 21.0411 31.9601 20.0666 31.5505 19.3577ZM19.3334 10.8153L20.9629 13.6381L18.3047 15.1728L25.4363 15.243L28.9399 9.03421L26.2809 10.5694L24.1472 6.87508C23.9303 6.50054 23.5185 6 22.8872 6H15.6396C14.3404 6 13.7807 6.9819 13.3719 7.69085L10.4752 12.7046L16.3006 16.0658L19.3334 10.8153Z" fill="#70B458"/>
</svg>
